<svg width="83" height="35" viewBox="0 0 83 35" fill="none" xmlns="http://www.w3.org/2000/svg">
<rect width="83" height="35" rx="17.5" fill="#6100A4"/>
<circle cx="63" cy="18" r="15" fill="#3C3541"/>
<path d="M71.9999 18.79C71.8426 20.4922 71.2038 22.1144 70.1581 23.4668C69.1125 24.8192 67.7034 25.8458 66.0956 26.4265C64.4878 27.0073 62.7479 27.1181 61.0794 26.7461C59.4109 26.3741 57.8829 25.5345 56.6741 24.3258C55.4654 23.117 54.6258 21.589 54.2538 19.9205C53.8818 18.252 53.9926 16.5121 54.5734 14.9043C55.1541 13.2965 56.1807 11.8874 57.5331 10.8418C58.8855 9.79614 60.5077 9.15731 62.2099 9C61.2133 10.3483 60.7338 12.0094 60.8584 13.6814C60.9831 15.3534 61.7038 16.9251 62.8893 18.1106C64.0748 19.2961 65.6465 20.0168 67.3185 20.1415C68.9905 20.2662 70.6516 19.7866 71.9999 18.79Z" stroke="white" stroke-width="2" stroke-linecap="round" stroke-linejoin="round"/>
</svg>
